<svg width="28" height="28" viewBox="0 0 28 28" fill="none" xmlns="http://www.w3.org/2000/svg">
<path d="M8.09479 25.2432C9.5545 25.2432 10.8041 24.7228 11.8436 23.6821C12.8831 22.6414 13.4028 21.3903 13.4028 19.9288C13.4028 18.4674 12.8831 17.2163 11.8436 16.1756C10.8041 15.1348 9.5545 14.6145 8.09479 14.6145C6.63507 14.6145 5.38547 15.1348 4.34597 16.1756C3.30648 17.2163 2.78673 18.4674 2.78673 19.9288C2.78673 20.4381 2.85308 20.9197 2.98578 21.3737C3.11848 21.8276 3.30648 22.2539 3.54976 22.6524L0.398104 25.7746C0.265402 25.8853 0.165876 26.0237 0.0995255 26.1898C0.0331745 26.3559 -1.90735e-06 26.5275 -1.90735e-06 26.7046C-1.90735e-06 26.8818 0.0331745 27.0478 0.0995255 27.2028C0.165876 27.3578 0.265402 27.5018 0.398104 27.6346C0.508688 27.7454 0.646919 27.8339 0.812796 27.9004C0.978672 27.9668 1.15008 28 1.32701 28C1.50395 28 1.66982 27.9668 1.82464 27.9004C1.97946 27.8339 2.12322 27.7454 2.25592 27.6346L5.40758 24.5125C5.80569 24.756 6.23144 24.9387 6.68483 25.0605C7.13823 25.1823 7.60821 25.2432 8.09479 25.2432ZM22.6919 25.2432C24.1517 25.2432 25.4013 24.7228 26.4408 23.6821C27.4803 22.6414 28 21.3903 28 19.9288C28 18.4674 27.4803 17.2163 26.4408 16.1756C25.4013 15.1348 24.1517 14.6145 22.6919 14.6145C21.2322 14.6145 19.9826 15.1348 18.9431 16.1756C17.9036 17.2163 17.3839 18.4674 17.3839 19.9288C17.3839 21.3903 17.9036 22.6414 18.9431 23.6821C19.9826 24.7228 21.2322 25.2432 22.6919 25.2432ZM8.09479 22.586C7.36493 22.586 6.74013 22.3258 6.22038 21.8055C5.70063 21.2851 5.44076 20.6595 5.44076 19.9288C5.44076 19.1981 5.70063 18.5726 6.22038 18.0522C6.74013 17.5318 7.36493 17.2717 8.09479 17.2717C8.82464 17.2717 9.44945 17.5318 9.96919 18.0522C10.4889 18.5726 10.7488 19.1981 10.7488 19.9288C10.7488 20.6595 10.4889 21.2851 9.96919 21.8055C9.44945 22.3258 8.82464 22.586 8.09479 22.586ZM22.6919 10.6287C24.1517 10.6287 25.4013 10.1083 26.4408 9.06762C27.4803 8.02689 28 6.7758 28 5.31435C28 3.85291 27.4803 2.60182 26.4408 1.56109C25.4013 0.520364 24.1517 0 22.6919 0C21.2322 0 19.9826 0.520364 18.9431 1.56109C17.9036 2.60182 17.3839 3.85291 17.3839 5.31435C17.3839 6.7758 17.9036 8.02689 18.9431 9.06762C19.9826 10.1083 21.2322 10.6287 22.6919 10.6287ZM8.09479 10.6287C9.5545 10.6287 10.8041 10.1083 11.8436 9.06762C12.8831 8.02689 13.4028 6.7758 13.4028 5.31435C13.4028 3.85291 12.8831 2.60182 11.8436 1.56109C10.8041 0.520364 9.5545 0 8.09479 0C6.63507 0 5.38547 0.520364 4.34597 1.56109C3.30648 2.60182 2.78673 3.85291 2.78673 5.31435C2.78673 6.7758 3.30648 8.02689 4.34597 9.06762C5.38547 10.1083 6.63507 10.6287 8.09479 10.6287Z" fill="#1100FF"/>
</svg>
