<svg width="138" height="138" viewBox="0 0 138 138" fill="none" xmlns="http://www.w3.org/2000/svg">
<rect width="138" height="138" rx="69" fill="#1100FF"/>
<path d="M29.7848 85.672C26.3608 85.672 23.4328 85 21.0008 83.656C18.5688 82.312 16.7128 80.344 15.4328 77.752C14.1528 75.16 13.5128 72.024 13.5128 68.344C13.5128 65.592 13.9288 63.144 14.7608 61C15.6248 58.824 16.8088 57 18.3128 55.528C19.8168 54.024 21.5768 52.888 23.5928 52.12C25.6088 51.352 27.7848 50.968 30.1208 50.968C31.9768 50.968 33.5928 51.128 34.9688 51.448C36.3448 51.768 37.4648 52.12 38.3288 52.504C39.2248 52.888 39.8488 53.208 40.2008 53.464L38.2808 58.792C37.3208 58.248 36.1688 57.784 34.8248 57.4C33.4808 56.984 31.9448 56.776 30.2168 56.776C28.3928 56.776 26.7288 57.192 25.2248 58.024C23.7528 58.824 22.5688 60.072 21.6728 61.768C20.7768 63.464 20.3288 65.624 20.3288 68.248C20.3288 70.488 20.6648 72.488 21.3368 74.248C22.0408 75.976 23.1288 77.352 24.6008 78.376C26.1048 79.368 28.0248 79.864 30.3608 79.864C32.5688 79.864 34.3288 79.656 35.6407 79.24C36.9528 78.824 38.0088 78.408 38.8088 77.992L40.6328 83.32C39.7048 83.864 38.2968 84.392 36.4088 84.904C34.5528 85.416 32.3448 85.672 29.7848 85.672ZM44.649 85C44.777 82.28 44.921 79.448 45.081 76.504C45.273 73.56 45.465 70.616 45.657 67.672C45.881 64.728 46.121 61.896 46.377 59.176C46.633 56.456 46.921 53.976 47.241 51.736H53.433C54.105 52.92 54.841 54.344 55.641 56.008C56.441 57.672 57.273 59.464 58.137 61.384C59.033 63.304 59.913 65.24 60.777 67.192C61.641 69.144 62.425 70.952 63.129 72.616C63.865 70.952 64.649 69.144 65.481 67.192C66.345 65.24 67.209 63.304 68.073 61.384C68.969 59.464 69.817 57.672 70.617 56.008C71.449 54.344 72.185 52.92 72.825 51.736H78.729C79.049 53.976 79.337 56.456 79.593 59.176C79.849 61.896 80.073 64.728 80.265 67.672C80.489 70.616 80.681 73.56 80.841 76.504C81.033 79.448 81.193 82.28 81.321 85H74.937C74.841 82.536 74.729 80.008 74.601 77.416C74.505 74.824 74.377 72.2 74.217 69.544C74.089 66.856 73.913 64.232 73.689 61.672C73.273 62.632 72.777 63.752 72.201 65.032C71.625 66.312 71.001 67.688 70.329 69.16C69.689 70.6 69.049 72.04 68.409 73.48C67.801 74.888 67.225 76.216 66.681 77.464C66.137 78.712 65.689 79.768 65.337 80.632H60.633C60.249 79.768 59.785 78.712 59.241 77.464C58.729 76.216 58.153 74.888 57.513 73.48C56.873 72.04 56.233 70.6 55.593 69.16C54.953 67.688 54.345 66.312 53.769 65.032C53.193 63.752 52.697 62.632 52.281 61.672C52.057 64.232 51.865 66.856 51.705 69.544C51.545 72.2 51.417 74.824 51.321 77.416C51.225 80.008 51.129 82.536 51.033 85H44.649ZM87.3521 85C87.4801 82.28 87.6241 79.448 87.7841 76.504C87.9761 73.56 88.1681 70.616 88.3601 67.672C88.5841 64.728 88.8241 61.896 89.0801 59.176C89.3361 56.456 89.6241 53.976 89.9441 51.736H96.1361C96.8081 52.92 97.5441 54.344 98.3441 56.008C99.1441 57.672 99.9761 59.464 100.84 61.384C101.736 63.304 102.616 65.24 103.48 67.192C104.344 69.144 105.128 70.952 105.832 72.616C106.568 70.952 107.352 69.144 108.184 67.192C109.048 65.24 109.912 63.304 110.776 61.384C111.672 59.464 112.52 57.672 113.32 56.008C114.152 54.344 114.888 52.92 115.528 51.736H121.432C121.752 53.976 122.04 56.456 122.296 59.176C122.552 61.896 122.776 64.728 122.968 67.672C123.192 70.616 123.384 73.56 123.544 76.504C123.736 79.448 123.896 82.28 124.024 85H117.64C117.544 82.536 117.432 80.008 117.304 77.416C117.208 74.824 117.08 72.2 116.92 69.544C116.792 66.856 116.616 64.232 116.392 61.672C115.976 62.632 115.48 63.752 114.904 65.032C114.328 66.312 113.704 67.688 113.032 69.16C112.392 70.6 111.752 72.04 111.112 73.48C110.504 74.888 109.928 76.216 109.384 77.464C108.84 78.712 108.392 79.768 108.04 80.632H103.336C102.952 79.768 102.488 78.712 101.944 77.464C101.432 76.216 100.856 74.888 100.216 73.48C99.5761 72.04 98.9361 70.6 98.2961 69.16C97.6561 67.688 97.0481 66.312 96.4721 65.032C95.8961 63.752 95.4001 62.632 94.9841 61.672C94.7601 64.232 94.5681 66.856 94.4081 69.544C94.2481 72.2 94.1201 74.824 94.0241 77.416C93.9281 80.008 93.8321 82.536 93.7361 85H87.3521Z" fill="white"/>
</svg>
