<svg width="138" height="138" viewBox="0 0 138 138" fill="none" xmlns="http://www.w3.org/2000/svg">
<rect width="138" height="138" rx="69" fill="#1100FF"/>
<path d="M14.8779 85.672C12.6699 85.672 10.7819 85.4 9.21394 84.856C7.67794 84.28 6.46194 83.656 5.56594 82.984L7.82194 77.896C8.68594 78.44 9.64594 78.936 10.7019 79.384C11.7899 79.832 13.0059 80.056 14.3499 80.056C16.3019 80.056 17.7259 79.56 18.6219 78.568C19.5179 77.576 19.9659 75.912 19.9659 73.576V51.736H26.4939V73.96C26.4939 76.136 26.1579 78.104 25.4859 79.864C24.8139 81.624 23.6299 83.032 21.9339 84.088C20.2699 85.144 17.9179 85.672 14.8779 85.672ZM39.5754 85C38.9034 82.984 38.2474 80.92 37.6074 78.808C36.9994 76.664 36.3914 74.488 35.7834 72.28C35.2074 70.072 34.6474 67.832 34.1034 65.56C33.5914 63.288 33.0794 61 32.5674 58.696C32.0874 56.392 31.6234 54.072 31.1754 51.736H38.2314C38.6794 54.488 39.1914 57.336 39.7674 60.28C40.3434 63.224 40.9354 66.088 41.5434 68.872C42.1834 71.624 42.8234 74.136 43.4634 76.408C44.0394 74.808 44.6154 73.112 45.1914 71.32C45.7994 69.496 46.3914 67.672 46.9674 65.848C47.5434 63.992 48.0874 62.184 48.5994 60.424C49.1114 58.632 49.5914 56.952 50.0394 55.384H55.6074C56.2474 57.496 56.9354 59.784 57.6714 62.248C58.4074 64.712 59.1754 67.176 59.9754 69.64C60.7754 72.072 61.5434 74.328 62.2794 76.408C62.8874 74.168 63.4794 71.672 64.0554 68.92C64.6634 66.136 65.2394 63.272 65.7834 60.328C66.3594 57.384 66.8874 54.52 67.3674 51.736H74.1354C73.6554 54.072 73.1594 56.392 72.6474 58.696C72.1674 61 71.6554 63.288 71.1114 65.56C70.5994 67.832 70.0394 70.072 69.4314 72.28C68.8554 74.488 68.2474 76.648 67.6074 78.76C66.9994 80.872 66.3594 82.952 65.6874 85H59.5434C58.7434 82.856 57.9434 80.664 57.1434 78.424C56.3754 76.152 55.6074 73.832 54.8394 71.464C54.1034 69.096 53.3514 66.696 52.5834 64.264C51.8474 66.696 51.0954 69.096 50.3274 71.464C49.5914 73.832 48.8394 76.152 48.0714 78.424C47.3034 80.664 46.5194 82.856 45.7194 85H39.5754ZM79.1938 85V52.264C80.7298 51.944 82.3778 51.72 84.1378 51.592C85.8978 51.432 87.4658 51.352 88.8418 51.352C93.7378 51.352 97.4658 52.232 100.026 53.992C102.618 55.752 103.914 58.536 103.914 62.344C103.914 64.968 103.322 67.112 102.138 68.776C100.954 70.408 99.2098 71.608 96.9058 72.376C94.6338 73.112 91.8658 73.48 88.6018 73.48H85.7698V85H79.1938ZM85.7698 67.864H88.5058C90.3618 67.864 91.9298 67.704 93.2098 67.384C94.5218 67.064 95.4978 66.504 96.1378 65.704C96.8098 64.904 97.1458 63.768 97.1458 62.296C97.1458 60.888 96.8098 59.8 96.1378 59.032C95.4658 58.264 94.5218 57.736 93.3058 57.448C92.1218 57.128 90.7618 56.968 89.2258 56.968C88.5538 56.968 87.9138 57 87.3058 57.064C86.6978 57.096 86.1858 57.128 85.7698 57.16V67.864ZM118.209 85.672C115.361 85.672 113.041 85.384 111.249 84.808C109.489 84.2 108.193 83.656 107.361 83.176L109.281 77.944C110.177 78.456 111.361 78.936 112.833 79.384C114.305 79.832 116.097 80.056 118.209 80.056C120.449 80.056 122.017 79.704 122.913 79C123.809 78.264 124.257 77.288 124.257 76.072C124.257 75.112 123.985 74.328 123.441 73.72C122.929 73.08 122.145 72.504 121.089 71.992C120.033 71.48 118.705 70.952 117.105 70.408C115.569 69.832 114.097 69.176 112.689 68.44C111.313 67.672 110.193 66.68 109.329 65.464C108.465 64.248 108.033 62.648 108.033 60.664C108.033 58.648 108.513 56.92 109.473 55.48C110.465 54.04 111.841 52.936 113.601 52.168C115.393 51.368 117.505 50.968 119.937 50.968C122.081 50.968 123.953 51.208 125.553 51.688C127.185 52.168 128.513 52.696 129.537 53.272L127.569 58.456C126.641 57.944 125.585 57.512 124.401 57.16C123.217 56.776 121.841 56.584 120.273 56.584C118.417 56.584 117.025 56.872 116.097 57.448C115.201 58.024 114.753 58.936 114.753 60.184C114.753 61.08 115.025 61.816 115.569 62.392C116.113 62.968 116.849 63.48 117.777 63.928C118.705 64.344 119.745 64.76 120.897 65.176C123.105 65.976 124.945 66.808 126.417 67.672C127.921 68.536 129.057 69.624 129.825 70.936C130.625 72.216 131.025 73.928 131.025 76.072C131.025 78.088 130.545 79.816 129.585 81.256C128.625 82.696 127.185 83.8 125.265 84.568C123.377 85.304 121.025 85.672 118.209 85.672Z" fill="white"/>
</svg>
